<svg width="72" height="73" viewBox="0 0 72 73" fill="none" xmlns="http://www.w3.org/2000/svg">
<path d="M42.9092 23.0417C42.6669 23.1663 42.4385 23.6094 42.4385 23.9417C42.4385 24.1909 42.66 24.5717 42.9231 24.7794C43.0685 24.8971 43.65 24.8901 43.8785 24.7725C44.2731 24.5648 44.4877 23.8863 44.2939 23.4709C44.0792 23.0278 43.3523 22.7994 42.9092 23.0417Z" fill="white"/>
<path d="M36.81 24.1491C36.7338 24.2945 36.7269 24.3845 36.7823 24.5299C36.9692 25.0076 37.5369 24.9384 37.5785 24.426C37.6062 24.0937 37.5023 23.9691 37.17 23.9691C36.9554 23.9691 36.8862 24.0037 36.81 24.1491Z" fill="white"/>
<path d="M24.9092 25.5618L24.7499 25.6034L24.7292 32.8865L24.7153 40.1695H23.8223C22.763 40.1695 22.7076 40.1972 22.7076 40.7442C22.7146 41.2426 22.943 41.6718 23.3376 41.9142L23.6423 42.1011L32.7461 42.1149C37.7515 42.1218 43.3523 42.1218 45.1938 42.1149L48.5307 42.108L48.8353 41.8311C49.223 41.4711 49.3061 41.2703 49.2784 40.6818L49.2576 40.2042L48.2538 40.1695L47.25 40.1349L47.2292 32.8726C47.2153 27.168 47.1946 25.5895 47.1253 25.548C47.0353 25.4788 25.1792 25.4995 24.9092 25.5618ZM46.4884 33.1426V40.1349L42.9646 40.1488C40.77 40.1488 39.42 40.1834 39.3784 40.2249C39.3369 40.2665 39.3576 40.4534 39.4476 40.7511L39.5861 41.208L36.2907 41.2149C32.9746 41.2288 32.4623 41.2218 32.4 41.1595C32.3861 41.1457 32.4207 40.9449 32.4761 40.7234C32.5384 40.4949 32.5592 40.2734 32.5315 40.2249C32.483 40.1557 31.7215 40.1349 28.9246 40.128L25.373 40.1142L25.3523 33.1495L25.3384 26.1849L33.6599 26.1642C38.243 26.1572 42.9992 26.1503 44.2384 26.1503H46.4884V33.1426Z" fill="white"/>
<path d="M26.6745 27.5277L26.4807 27.6938L26.4599 33.1977C26.4461 38.5423 26.4461 38.7015 26.5776 38.8608L26.7092 39.0269L35.8476 39.0477L44.993 39.0615L45.1869 38.8954L45.3807 38.7292L45.4015 33.2254L45.4153 27.7215L45.2007 27.5415L44.9861 27.3615H35.9307H26.8684L26.6745 27.5277ZM37.3084 30.5184C37.3915 30.6223 37.4538 30.7884 37.4538 30.8923C37.4538 31.0861 37.163 31.5292 36.6853 32.0484C36.5607 32.1938 36.2492 32.54 36.0069 32.8169C35.6815 33.1908 35.5292 33.3154 35.3976 33.3154C35.2038 33.3154 34.913 33.0315 34.8507 32.7892C34.8161 32.6438 34.9545 32.2284 35.093 32.0554C35.1345 32.0069 35.3699 31.7023 35.6122 31.3769C36.4292 30.2969 36.3807 30.3384 36.7961 30.3384C37.1145 30.3384 37.1907 30.3661 37.3084 30.5184ZM32.9053 30.74C33.1407 30.9477 33.2445 31.3008 33.1545 31.5777C33.0161 32.0069 33.0369 32 31.7976 32C30.5376 32 30.3092 32.0623 29.9561 32.4846C29.5476 32.9692 29.5545 33.5092 29.9769 34.0215C30.3576 34.4854 30.503 34.5269 31.7076 34.5338C32.2961 34.5338 32.8153 34.5408 32.8638 34.5477C33.0092 34.5684 33.2307 34.8592 33.2307 35.0254C33.2307 35.2054 32.9884 35.6623 32.8292 35.78C32.3653 36.1192 30.5238 36.0569 29.7692 35.6692C29.2984 35.4269 28.8415 34.9561 28.5853 34.4369C28.3707 34.0008 28.3569 33.9315 28.3569 33.2738C28.3638 32.63 28.3776 32.5469 28.5853 32.1315C28.9384 31.4392 29.3815 31.0377 30.2192 30.6777C30.3992 30.6015 30.9392 30.5738 31.9499 30.6015C32.6007 30.6223 32.8084 30.65 32.9053 30.74ZM41.2822 30.6915C41.3653 30.74 41.5245 30.8508 41.6284 30.9338C41.7807 31.0584 41.9122 31.1 42.1822 31.1C42.383 31.1 42.6115 31.1208 42.6945 31.1415C42.8469 31.1831 42.9922 31.4808 42.9922 31.7646C42.9922 31.8684 43.0961 32.0069 43.2969 32.1731C43.6984 32.4984 43.733 32.6784 43.5115 33.1354C43.3384 33.4884 43.3384 33.5092 43.4492 33.7654C43.6776 34.3192 43.4007 34.7208 42.7153 34.8315C42.5215 34.8592 42.3553 34.9008 42.3484 34.9146C41.8015 35.6484 41.4761 35.8284 40.9845 35.6692C40.7007 35.5723 40.5207 35.4338 40.3338 35.1708C40.2369 35.0323 40.2022 35.0254 40.0845 35.1015C40.0084 35.15 39.8076 35.2054 39.6345 35.2331C39.3576 35.2677 39.3092 35.2538 39.1153 35.06C38.9353 34.8731 38.9145 34.8246 38.9769 34.6584C39.0738 34.4092 39.0253 34.2777 38.6584 33.8554C38.3884 33.5369 38.3538 33.4538 38.3538 33.17C38.3538 32.8654 38.3815 32.81 38.7069 32.4846C39.0322 32.1592 39.053 32.1108 39.0184 31.8961C38.9145 31.3492 39.1222 31.1692 39.8284 31.1692C40.2438 31.1692 40.2784 31.1554 40.5553 30.8923C40.853 30.6084 41.0261 30.56 41.2822 30.6915ZM37.1699 33.9731C37.2461 34.07 37.3292 34.25 37.3499 34.3608C37.4122 34.6238 37.3015 34.7831 36.4569 35.6969L35.8476 36.3615H35.453C35.003 36.3615 34.8922 36.2854 34.8922 35.9738C34.8922 35.7731 35.0792 35.5031 35.5638 34.9908C35.6122 34.9354 35.7507 34.7484 35.8684 34.5754C36.263 33.9869 36.4845 33.8 36.7684 33.8C36.9622 33.8 37.0661 33.8415 37.1699 33.9731Z" fill="white"/>
<path d="M40.6038 32.2216C39.7107 32.7131 39.7661 33.7239 40.7076 34.1185C41.1507 34.3054 41.7046 34.0769 41.9538 33.5992C42.2307 33.0523 42.0576 32.54 41.4899 32.2216C41.2961 32.1177 40.7907 32.1177 40.6038 32.2216Z" fill="white"/>
<path d="M48.7661 26.621C48.5861 26.718 48.5308 26.808 48.5308 27.0157C48.5308 27.251 48.6485 27.3618 48.9115 27.3618C49.2992 27.3618 49.5069 26.9534 49.2438 26.7249C49.0569 26.5657 48.9185 26.538 48.7661 26.621Z" fill="white"/>
<path d="M22.0499 28.9261C21.8353 29.1546 21.8353 29.3069 22.0361 29.5492C22.3684 29.9369 22.9015 29.6738 22.8184 29.1615C22.7492 28.7254 22.3476 28.6077 22.0499 28.9261Z" fill="white"/>
<path d="M49.23 29.5286C48.8976 29.6324 48.4823 30.0824 48.3853 30.4355C48.2676 30.8716 48.3992 31.3632 48.7246 31.6609C49.05 31.9724 49.2853 32.0693 49.7007 32.0693C50.2961 32.0693 50.76 31.7647 50.9815 31.2247C51.2515 30.574 50.933 29.8816 50.2338 29.577C49.8738 29.4247 49.5969 29.4109 49.23 29.5286ZM50.0815 30.4286C50.4761 30.8163 50.0261 31.384 49.5 31.1693C48.9253 30.934 49.1746 30.2001 49.7976 30.304C49.9084 30.3247 50.033 30.3801 50.0815 30.4286Z" fill="white"/>
<path d="M21.7869 34.6586C21.3023 34.8386 21.0461 35.1847 21.0461 35.6624C21.0461 36.8255 22.4723 37.3724 23.1577 36.4655C23.4138 36.1332 23.4692 35.6001 23.2961 35.2193C23.0538 34.714 22.3477 34.4509 21.7869 34.6586ZM22.3131 35.4409C22.2646 35.4547 22.1815 35.4547 22.14 35.4409C22.0915 35.4201 22.1261 35.4063 22.2231 35.4063C22.32 35.4063 22.3546 35.4201 22.3131 35.4409ZM22.2369 36.0016C22.0638 36.0501 21.9461 35.9532 21.9461 35.7663V35.5793L22.14 35.7801C22.2646 35.9186 22.2992 35.9878 22.2369 36.0016ZM22.6385 35.9116C22.59 35.967 22.5277 36.0155 22.4931 36.0155C22.3961 36.0155 22.4238 35.8978 22.5485 35.7663C22.6869 35.6278 22.77 35.7593 22.6385 35.9116Z" fill="white"/>
<path d="M48.5654 35.5586C48.4131 35.794 48.4616 36.0779 48.6831 36.244C49.0916 36.5486 49.5554 36.0294 49.2439 35.6071C49.05 35.3509 48.7177 35.3232 48.5654 35.5586Z" fill="white"/>
<path d="M22.6661 43.5272C22.583 43.5825 22.5622 43.6656 22.5899 43.7833L22.6384 43.9564L25.4492 43.9979C26.9999 44.0256 33.0092 44.0464 38.8107 44.0464C48.3022 44.0464 49.3615 44.0325 49.4584 43.9356C49.5899 43.8041 49.5969 43.6725 49.4861 43.5756C49.3476 43.4718 22.8115 43.4164 22.6661 43.5272Z" fill="white"/>
<path d="M22.5 45.7564C21.9462 45.9433 21.5862 46.2618 21.2677 46.8502C21.1085 47.1479 21.0808 47.2795 21.0808 47.7849C21.0808 48.2418 21.1154 48.4495 21.2262 48.6918C21.4339 49.1349 21.8354 49.5641 22.2508 49.7787C22.5485 49.931 22.7008 49.9587 23.227 49.9587C23.9331 49.9656 24.4662 49.841 24.6116 49.6333C24.7154 49.481 24.6877 49.1833 24.5285 48.8649C24.4177 48.6572 24.4454 48.6572 23.767 48.851C22.8808 49.1002 22.2231 48.6572 22.2231 47.8126C22.2231 47.3349 22.4239 46.9333 22.7493 46.781C23.0539 46.6356 23.5247 46.6495 23.85 46.8156C24.0023 46.8918 24.1616 46.9541 24.21 46.9541C24.3277 46.9541 24.6739 46.2272 24.6254 46.0956C24.4939 45.7495 23.1439 45.5418 22.5 45.7564Z" fill="white"/>
<path d="M39.1016 45.701C38.9631 45.7287 38.7208 45.8326 38.5754 45.9295C37.8831 46.3864 37.8623 47.6118 38.5408 48.0064C38.7762 48.1449 39.4477 48.3387 39.6969 48.3387C39.9046 48.3387 40.0292 48.491 40.0016 48.6987C39.9877 48.8095 39.9046 48.8787 39.7246 48.941C39.4546 49.031 39.1708 48.9826 38.6862 48.7749C38.4092 48.6572 38.4785 48.6295 37.8692 49.1002L37.6962 49.2387L37.9108 49.4395C38.2777 49.7787 38.8108 49.931 39.5862 49.9241C40.3477 49.9172 40.5277 49.8479 40.8739 49.4187C41.0746 49.1764 41.0885 49.1141 41.0885 48.6156C41.0885 48.1033 41.0746 48.0549 40.8808 47.8541C40.5969 47.5564 40.4169 47.4664 39.7731 47.3349C39.0254 47.1826 38.8246 46.9126 39.3092 46.7049C39.5585 46.601 39.6831 46.601 40.4031 46.7187C40.6869 46.7602 40.6939 46.7602 40.8877 46.4349C41.1092 46.0472 41.0746 45.9364 40.68 45.7979C40.3477 45.6872 39.4408 45.6318 39.1016 45.701Z" fill="white"/>
<path d="M26.4669 45.8186C26.3077 45.8809 26.0446 46.0539 25.8785 46.2132C25.47 46.6078 25.2554 47.0647 25.2138 47.6532C25.1446 48.664 25.56 49.3978 26.4392 49.8132C26.9031 50.0347 27.8654 50.0278 28.3362 49.7993C29.2708 49.3424 29.7831 48.0963 29.4231 47.1478C29.34 46.9263 29.1392 46.6009 28.9662 46.407C28.6754 46.0816 28.5646 46.0055 28.0177 45.7839C27.7477 45.6801 26.82 45.7009 26.4669 45.8186ZM27.9277 46.9401C28.3223 47.1686 28.4677 47.6601 28.3085 48.2278C28.2115 48.574 27.9831 48.7955 27.6162 48.8924C27.2077 49.0032 26.8615 48.8924 26.5915 48.5601C26.4046 48.3386 26.3769 48.2555 26.3769 47.8816C26.3769 47.5563 26.4115 47.4039 26.5362 47.224C26.8477 46.7532 27.4154 46.6424 27.9277 46.9401Z" fill="white"/>
<path d="M30.1569 45.8184C30.1361 45.8807 30.1154 46.7876 30.1154 47.8468C30.1154 49.2453 30.1361 49.7853 30.1984 49.8476C30.2538 49.903 30.593 49.9307 31.2715 49.9307C32.1577 49.9307 32.2961 49.9168 32.6215 49.7645C33.0854 49.5637 33.473 49.1691 33.6877 48.6984C33.9161 48.2068 33.923 47.376 33.7084 46.9191C33.4592 46.393 33.0784 46.0468 32.5246 45.8391C32.0261 45.6591 30.2261 45.6384 30.1569 45.8184ZM32.0469 46.836C32.4623 46.9607 32.663 47.1753 32.7184 47.5422C32.8361 48.366 32.4138 48.8922 31.6177 48.8922C31.4515 48.8922 31.2854 48.8576 31.2369 48.8091C31.1815 48.7537 31.1538 48.4145 31.1538 47.736V46.746H31.4515C31.6107 46.746 31.8807 46.7876 32.0469 46.836Z" fill="white"/>
<path d="M34.5254 45.8045C34.47 45.943 34.4631 49.6814 34.5185 49.8199C34.5531 49.9168 34.7469 49.9307 36.0069 49.9307H37.4538V49.4807V49.0376L36.54 49.0168L35.6192 48.996L35.5985 48.6637L35.5777 48.3384H36.3392C37.1908 48.3384 37.2462 48.3037 37.2462 47.8399C37.2462 47.466 37.1977 47.4453 36.45 47.4314C36.0692 47.4245 35.7162 47.4037 35.6746 47.3899C35.6192 47.3691 35.5846 47.2307 35.5846 47.0507V46.746H36.4431C37.4469 46.746 37.4677 46.7322 37.44 46.1437L37.4192 45.7422L35.9931 45.7214C34.7885 45.7076 34.5531 45.7214 34.5254 45.8045Z" fill="white"/>
<path d="M41.6908 45.763C41.6285 45.8115 41.6077 46.2753 41.6215 47.8607L41.6423 49.8961L42.0438 49.9168C42.2861 49.9307 42.4869 49.903 42.5492 49.8545C42.6808 49.7438 42.6946 45.9222 42.5631 45.7907C42.4731 45.7007 41.8292 45.6799 41.6908 45.763Z" fill="white"/>
<path d="M43.5115 45.7978C43.4908 45.8463 43.4838 46.7878 43.4908 47.8886L43.5115 49.8963L44.5361 49.917C45.6508 49.9378 45.9831 49.8686 46.4677 49.5432C46.9592 49.204 47.2846 48.5117 47.2846 47.7986C47.2846 46.8086 46.6684 46.047 45.6577 45.784C45.2492 45.6732 43.5531 45.687 43.5115 45.7978ZM45.4915 46.8432C45.9692 47.044 46.1769 47.3347 46.1769 47.7847C46.1769 48.1932 45.9415 48.5809 45.5884 48.754C45.2561 48.9132 44.7092 48.9409 44.5915 48.7955C44.5154 48.7055 44.4946 47.5286 44.5638 47.0024C44.5984 46.7463 44.5984 46.7463 44.9308 46.7463C45.1108 46.7463 45.3669 46.7878 45.4915 46.8432Z" fill="white"/>
<path d="M47.9562 45.7907C47.8523 45.846 47.8385 46.0537 47.8385 47.7568C47.8385 48.9407 47.8662 49.716 47.9077 49.7991C47.977 49.9237 48.067 49.9307 49.417 49.9307C50.4485 49.9307 50.8777 49.9099 50.94 49.8476C50.9885 49.7991 51.0231 49.5984 51.0231 49.3976C51.0231 49.1137 50.9954 49.0237 50.8916 48.9614C50.8154 48.9268 50.3516 48.8922 49.8531 48.8922H48.9462V48.6153V48.3384H49.7077C50.5454 48.3384 50.6077 48.3037 50.6077 47.8537C50.6077 47.3968 50.5454 47.3622 49.7216 47.376L48.9808 47.3899L48.96 47.0714L48.9393 46.753L49.9293 46.7322L50.9193 46.7114L50.94 46.2753C50.9539 45.9707 50.9331 45.8391 50.8708 45.8184C50.67 45.756 48.06 45.7284 47.9562 45.7907Z" fill="white"/>
</svg>
