<svg width="554" height="535" viewBox="0 0 554 535" fill="none" xmlns="http://www.w3.org/2000/svg">
<g filter="url(#filter0_d_448_321)">
<path d="M507.475 488.337C507.475 498.592 398.798 506.903 264.737 506.903C130.677 506.903 22 498.59 22 488.337C22 478.081 130.677 469.771 264.737 469.771C398.798 469.768 507.475 478.081 507.475 488.337Z" fill="#91BB1E"/>
<path opacity="0.2" d="M62.1188 136.819C62.1188 136.819 67.4886 108.771 82.6072 109.866C86.7927 110.168 89.6357 113.617 91.5009 117.321C92.6497 119.602 96.6674 119.442 97.4999 117.071C101.501 105.674 109.682 88.2783 122.358 88.2783C135.469 88.2783 135.905 108.181 134.953 120.303C134.811 122.13 137.718 122.938 138.983 121.426C142.443 117.284 147.49 113.31 153.628 114.462C165.584 116.706 162.363 136.819 162.363 136.819H62.1188Z" fill="#A17872"/>
<path opacity="0.2" d="M526.869 201.455H430.448C430.448 201.455 434.679 179.332 446.609 180.195C449.907 180.431 452.157 183.156 453.625 186.075C454.532 187.878 457.701 187.75 458.356 185.878C461.508 176.885 467.963 163.165 477.963 163.165C488.306 163.165 488.648 178.864 487.899 188.424C487.786 189.865 490.081 190.506 491.078 189.312C493.808 186.046 497.79 182.907 502.631 183.818C506.768 184.595 508.601 188.083 509.356 191.753C509.582 192.855 511.463 193 511.947 191.952C514.464 186.506 518.933 178.586 523.677 178.421C530.925 178.174 526.869 201.455 526.869 201.455Z" fill="#A17872"/>
<path d="M241.271 139.65C281.89 139.65 314.818 112.866 314.818 79.8251C314.818 46.7846 281.89 20 241.271 20C200.652 20 167.724 46.7846 167.724 79.8251C167.724 112.866 200.652 139.65 241.271 139.65Z" fill="#FDEBD1"/>
<path d="M212.114 367.984C200.074 380.429 172.26 398.656 172.26 398.656L96.0347 409.311L63.6289 413.831L62.5704 413.981L62.3477 413.164L61.1344 408.718L59.0562 401.145C59.0562 401.145 76.2239 394.84 90.2712 389.138C102.799 384.046 116.113 378.402 121.664 375.255C133.436 368.575 156.909 370.063 156.909 370.063C158.452 365.417 163.602 359.833 168.643 355.2C174.416 349.914 180.05 345.864 180.05 345.864C201.168 353.531 212.114 367.984 212.114 367.984Z" fill="#F6B489"/>
<path d="M212.116 367.983C200.076 380.428 172.262 398.656 172.262 398.656L96.0361 409.31L63.6303 413.831L62.3492 413.164L55.7112 409.709L61.139 408.717L166.566 389.461C173.32 387.421 182.582 378.158 182.582 378.158C172.572 370.422 169.545 360.854 168.648 355.202C174.421 349.916 180.055 345.865 180.055 345.865C201.17 353.53 212.116 367.983 212.116 367.983Z" fill="#F09E7B"/>
<path d="M273.447 386.056C273.447 386.056 295.401 372.086 300.422 345.868C300.422 345.868 278.039 355.478 273.447 386.056Z" fill="#FF5212"/>
<path d="M230.983 361.028L198.051 381.39C198.051 381.39 173.013 368.367 174.733 346.869L206.299 319.352C206.299 319.352 236.727 346.735 230.983 361.028Z" fill="#FF5212"/>
<path d="M195.318 304.229C195.318 304.229 187.919 335.639 211.17 341.708C234.42 347.777 255.919 350.688 270.579 340.805C280.309 334.243 279.902 312.249 279.902 312.249C279.902 312.249 215.391 310.345 195.318 304.229Z" fill="#FF5212"/>
<path d="M445.552 269.375C445.552 269.375 442.202 269.608 436.791 269.957C417.177 271.243 370.446 274.126 357.577 273.367C341.151 272.401 315.416 215.86 315.416 215.86C315.416 215.86 324.532 189.639 331.541 188.245C331.541 188.245 333.387 190.041 336.204 193.28C344.856 203.239 362.695 226.816 364.241 253.575C364.241 253.575 387.691 250.354 406.718 253.575C425.738 256.796 445.552 253.575 445.552 253.575C445.552 253.575 448.724 263.245 445.552 269.375Z" fill="#F6B489"/>
<path d="M436.791 269.957C417.177 271.243 370.446 274.126 357.577 273.367C341.151 272.401 315.416 215.86 315.416 215.86C315.416 215.86 324.532 189.639 331.541 188.245C331.541 188.245 333.387 190.041 336.204 193.28C333.355 198.021 325.929 216.624 327.698 223.073C329.76 230.607 348.693 262.628 357.625 267.025C366.548 271.419 436.791 269.957 436.791 269.957Z" fill="#F09E7B"/>
<path d="M331.543 188.245L283.244 304.228H283.238L279.904 312.247C249.344 323.456 220.546 320.862 192.971 308.638L246.611 170.408L283.731 169.051C286.094 170.513 288.804 171.658 291.567 172.542C300.406 175.38 309.761 175.619 309.761 175.619L331.543 188.245Z" fill="#3E3E59"/>
<path d="M283.235 304.228L279.901 312.247C249.341 323.456 220.543 320.862 192.968 308.638L246.608 170.408L283.728 169.051C286.091 170.513 288.801 171.658 291.564 172.542C291.564 172.542 261.204 183.31 246.463 228.519C231.728 273.723 255.508 306.687 283.235 304.228Z" fill="#2C2A40"/>
<path d="M318.397 160.508L315.419 165.713L311.117 173.239L308.28 178.198C306.528 181.261 302.065 182.618 298.289 181.216C289.147 177.822 283.729 169.05 283.729 169.05L299.07 146.554C304.818 144.798 318.397 160.508 318.397 160.508Z" fill="#F6B489"/>
<path d="M315.418 165.713L311.116 173.239L304.11 156.969C307.528 161.395 315.418 165.713 315.418 165.713Z" fill="#F09E7B"/>
<path d="M365.734 129.478L370.032 148.95C370.138 149.427 369.851 149.908 369.325 150.136L358.428 154.877L365.734 129.478Z" fill="#F6B489"/>
<path d="M367.19 111.752L363.805 153.355L363.259 158.899L362.672 164.766C362.156 170.026 357.054 173.971 351.006 174.475C349.515 174.599 347.979 174.515 346.434 174.192L342.842 173.444L328.727 170.498C314.405 167.514 303.253 159.017 298.315 148.244C297.999 147.554 297.705 146.858 297.444 146.149C296.524 143.674 295.914 141.094 295.669 138.445C295.576 137.408 295.527 136.364 295.543 135.306L295.947 106.552C295.947 106.552 333.658 76.1606 367.177 111.742L367.19 111.752Z" fill="#F6B489"/>
<path d="M362.346 125.33C362.346 125.33 349.89 118.466 343.197 126.629L344.875 128.343C344.875 128.343 351.981 122.445 361.962 127.734L362.346 125.33Z" fill="#2C2A40"/>
<path d="M357.614 131.995C357.495 133.208 356.188 134.113 354.697 134.016C353.206 133.919 352.093 132.856 352.212 131.643C352.332 130.431 353.639 129.525 355.13 129.622C356.621 129.719 357.734 130.782 357.614 131.995Z" fill="#2C2A40"/>
<path d="M302.367 121.016C302.367 121.016 316.06 117.9 312.265 130.875C312.265 130.875 312.384 122.039 302.367 121.016Z" fill="#F09E7B"/>
<path d="M362.108 157.257L339.622 151.858C339.622 151.858 340.286 163.83 352.478 165.327C362.04 166.5 362.108 157.257 362.108 157.257Z" fill="white"/>
<path d="M367.174 111.739C366.935 111.61 363.918 110.132 346.876 110.287C330.721 110.434 328.711 107.541 328.472 106.993C328.788 108.056 331.602 118.199 324.09 121.409L322.321 130.872L318.397 129.473C318.397 129.473 317.168 115.442 307.648 114.959C298.128 114.476 297.092 124.315 302.368 128.344C307.638 132.368 298.309 148.238 298.309 148.238C297.993 147.548 297.699 146.852 297.438 146.144C296.518 143.668 295.908 141.088 295.663 138.44C295.569 137.403 295.521 136.358 295.537 135.3L295.94 106.547C295.94 106.547 333.655 76.1575 367.174 111.739Z" fill="#2C2A40"/>
<path d="M367.706 111.739C363.592 111.881 356.238 111.545 347.763 110.978C325.674 109.526 295.944 106.55 295.944 106.55C292.139 92.6953 305.931 79.2582 324.848 76.2159C330.602 75.2866 336.84 75.326 343.197 76.6017C370.43 82.0826 367.706 111.739 367.706 111.739Z" fill="#4872C0"/>
<path d="M347.763 110.978C325.674 109.527 295.944 106.55 295.944 106.55C292.139 92.6957 305.931 79.2586 324.848 76.2163C324.848 76.2163 343.839 80.6209 348.064 94.4623C350.261 101.657 349.245 107.259 347.763 110.978Z" fill="#201C97"/>
<path d="M352.203 111.264L401.109 112.994C401.109 112.994 367.19 98.8454 352.203 111.264Z" fill="#2C2A40"/>
<path d="M246.608 201.675C239.477 204.575 224.948 223.493 184.001 228.428C184.001 228.428 192.63 245.677 184.788 269.047L186.786 288.253C182.277 291.324 175.278 299.674 169.766 298.462C169.766 298.462 157.839 231.974 160.621 220.052C163.393 208.122 246.612 170.404 246.612 170.404C246.612 170.404 250.632 171.189 254.385 174.53C256.276 176.213 258.097 178.549 259.294 181.77C262.86 191.359 253.743 198.774 246.608 201.675Z" fill="#F6B489"/>
<path d="M246.607 201.674C239.475 204.575 224.947 223.493 183.999 228.428C183.999 228.428 192.629 245.676 184.787 269.046L186.784 288.253C186.784 288.253 177.368 266.24 181.805 253.21C184.174 246.254 178.462 223.907 178.462 223.907C207.021 219.933 236.865 198.377 246.459 191.754C256.062 185.137 254.378 174.532 254.378 174.532C256.269 176.215 258.089 178.551 259.286 181.772C262.858 191.358 253.742 198.774 246.607 201.674Z" fill="#F09E7B"/>
<path d="M196.725 193.119C196.725 193.119 208.568 220.264 214.909 220.479C221.251 220.694 224.949 216.182 224.949 216.182C223.08 217.04 207.707 191.731 207.774 188.245C207.826 185.607 195.221 189.809 196.725 193.119Z" fill="#2C2A40"/>
<path d="M193.601 211.5L193.214 210.928C190.213 206.497 192.194 200.927 197.638 198.485L212.653 191.755C218.101 189.314 224.948 190.926 227.949 195.356L228.337 195.929C231.338 200.36 229.356 205.93 223.909 208.371L208.894 215.101C203.45 217.543 196.602 215.928 193.601 211.5Z" fill="#2C2A40"/>
<path d="M226.177 204.88L217.545 208.749L212.521 211.007L207.441 213.282L204.579 214.566L204.547 214.579C203.111 215.225 201.313 214.797 200.519 213.632L194.685 205.024C193.901 203.864 194.423 202.394 195.85 201.756L204.576 197.842L207.438 196.559L212.517 194.283L217.477 192.06C217.5 192.054 217.516 192.041 217.542 192.033C218.968 191.427 220.72 191.86 221.505 192.999L227.339 201.612C228.13 202.772 227.613 204.242 226.177 204.88Z" fill="#ADADCD"/>
<path opacity="0.2" d="M217.549 192.031V208.749L212.524 211.007V194.283L217.484 192.06C217.507 192.052 217.523 192.039 217.549 192.031Z" fill="#2C2A40"/>
<path opacity="0.2" d="M207.442 196.555V213.282L204.583 214.562V197.839L207.442 196.555Z" fill="#2C2A40"/>
<path d="M192.513 307.679C192.513 307.679 270.004 317.819 300.422 345.869C300.422 345.869 280.079 367.039 273.447 386.057C273.447 386.057 219.649 359.036 198.051 333.332C198.051 333.332 194.795 321.265 192.513 307.679Z" fill="#FF5212"/>
<path d="M360.403 467.748L345.136 474.919C345.136 474.919 344.349 473.305 343.045 470.756C340.112 465.036 334.594 454.607 329.592 447.129C322.737 436.839 314.947 425.617 310.759 421.066C302.143 411.737 307.88 390.257 307.88 390.257C295.553 387.928 276.394 379.13 276.394 379.13C285.072 361.687 298.632 347.798 298.632 347.798C300.539 348.935 302.552 350.253 304.627 351.704C319.678 362.165 337.727 379.13 337.727 379.13L353.22 439.69L360.403 467.748Z" fill="#F6B489"/>
<path d="M343.045 470.756C340.112 465.036 334.594 454.607 329.592 447.129C322.737 436.839 314.947 425.617 310.759 421.066C302.143 411.737 307.88 390.257 307.88 390.257C295.553 387.928 276.394 379.13 276.394 379.13C285.072 361.687 298.632 347.798 298.632 347.798C300.539 348.935 302.552 350.253 304.627 351.704C301.894 355.573 293.859 367.037 288.589 375.444C288.589 375.444 304.721 386.419 318.4 386.057C318.4 386.057 309.429 403.486 316.122 417.299C322.812 431.111 343.716 459.962 343.045 470.756Z" fill="#F09E7B"/>
<path d="M350.106 488.973L351.632 492.136C351.632 492.136 395.019 482.077 408.434 457.526L407.179 455.946C407.179 455.946 378.132 477.625 350.106 488.973Z" fill="#1D59A4"/>
<path d="M343.041 474.043C343.041 474.043 349.615 464.693 360.406 463.892L362.884 466.165C362.884 466.165 390.83 438.165 407.182 455.949C392.053 473.423 371.849 482.474 350.108 488.973L343.041 474.043Z" fill="#201C97"/>
<path d="M42.8021 399.428L38.6327 399.636C38.6327 399.636 37.0289 436.312 61.6092 454.256L63.8423 453.77C63.8423 453.77 47.4361 424.612 42.8021 399.428Z" fill="#1D59A4"/>
<path d="M60.4997 399.428C60.4997 399.428 68.7254 405.39 66.3374 413.984L63.8429 414.336C63.8429 414.336 89.6785 446.594 63.8429 453.77C48.0659 436.679 43.7062 418.255 42.8026 399.428H60.4997Z" fill="#201C97"/>
<path d="M442.296 255.404L451.099 243.742L469.919 240.56C471.939 240.219 473.834 241.474 473.834 243.151C473.834 244.225 473.037 245.191 471.817 245.6L465.673 247.65L486.906 244.739C488.352 244.54 489.672 245.437 489.695 246.629C489.711 247.514 488.991 248.293 487.946 248.532L470.339 252.517L490.882 251.472C492.386 251.396 493.657 252.367 493.657 253.593C493.657 254.638 492.725 255.528 491.457 255.69L470.336 258.444H489.93C491.156 258.444 492.121 259.289 492.034 260.284C491.96 261.134 491.131 261.812 490.085 261.875L472.085 262.951L488.62 264.192C489.407 264.25 490.037 264.749 490.133 265.387C490.233 266.051 489.73 266.676 488.943 266.867C484.528 267.936 469.309 270.912 442.293 269.24V255.404H442.296Z" fill="#F6B489"/>
<path d="M183.919 287.028L200.839 294.267L208.48 308.615C209.3 310.156 208.174 311.92 206.154 312.259C204.86 312.477 203.537 312.038 202.798 311.148L199.083 306.67L206.893 322.995C207.425 324.105 206.612 325.339 205.182 325.599C204.121 325.79 203.036 325.376 202.536 324.591L194.172 311.374L199.593 327.528C199.99 328.712 199.077 329.919 197.602 330.169C196.343 330.381 195.085 329.817 194.63 328.843L187.037 312.576L191.006 328.187C191.254 329.163 190.432 330.103 189.218 330.237C188.179 330.35 187.195 329.825 186.911 329.006L181.967 314.884L183.823 328.305C183.91 328.943 183.442 329.547 182.69 329.754C181.909 329.969 181.057 329.696 180.667 329.106C178.488 325.806 172.628 317.944 169.169 296.086L183.919 287.028Z" fill="#F6B489"/>
</g>
<defs>
<filter id="filter0_d_448_321" x="0" y="0" width="554" height="534.903" filterUnits="userSpaceOnUse" color-interpolation-filters="sRGB">
<feFlood flood-opacity="0" result="BackgroundImageFix"/>
<feColorMatrix in="SourceAlpha" type="matrix" values="0 0 0 0 0 0 0 0 0 0 0 0 0 0 0 0 0 0 127 0" result="hardAlpha"/>
<feOffset dx="2" dy="4"/>
<feGaussianBlur stdDeviation="12"/>
<feComposite in2="hardAlpha" operator="out"/>
<feColorMatrix type="matrix" values="0 0 0 0 0 0 0 0 0 0 0 0 0 0 0 0 0 0 0.48 0"/>
<feBlend mode="normal" in2="BackgroundImageFix" result="effect1_dropShadow_448_321"/>
<feBlend mode="normal" in="SourceGraphic" in2="effect1_dropShadow_448_321" result="shape"/>
</filter>
</defs>
</svg>
