<svg width="85" height="90" viewBox="0 0 85 90" fill="none" xmlns="http://www.w3.org/2000/svg">
<g clip-path="url(#clip0_450_1044)">
<path fill-rule="evenodd" clip-rule="evenodd" d="M42.5024 84.7906C52.163 84.7962 61.4966 81.3038 68.7662 74.9635C76.0358 68.6231 80.7462 59.8666 82.0209 50.3236C83.2955 40.7806 81.0476 31.1012 75.6954 23.0866C70.3431 15.072 62.2512 9.26818 52.9255 6.7553C53.1527 5.96676 53.1929 5.13639 53.043 4.32972C52.893 3.52305 52.5569 2.76214 52.0614 2.10706C51.5658 1.45197 50.9242 0.920627 50.1872 0.554961C49.4503 0.189295 48.6381 -0.000689281 47.8149 1.87908e-06H37.1899C36.3666 -0.000689281 35.5545 0.189295 34.8175 0.554961C34.0806 0.920627 33.439 1.45197 32.9434 2.10706C32.4478 2.76214 32.1117 3.52305 31.9618 4.32972C31.8118 5.13639 31.852 5.96676 32.0792 6.7553C22.7535 9.26818 14.6616 15.072 9.30938 23.0866C3.95715 31.1012 1.70918 40.7806 2.98383 50.3236C4.25848 59.8666 8.96893 68.6231 16.2385 74.9635C23.5082 81.3038 32.8418 84.7962 42.5024 84.7906ZM77.0336 45.0847C77.0336 54.2113 73.3955 62.964 66.9196 69.4175C60.4438 75.871 51.6606 79.4965 42.5024 79.4965C33.3441 79.4965 24.5609 75.871 18.0851 69.4175C11.6092 62.964 7.97111 54.2113 7.97111 45.0847C7.97111 35.9581 11.6092 27.2054 18.0851 20.7519C24.5609 14.2985 33.3441 10.6729 42.5024 10.6729C51.6606 10.6729 60.4438 14.2985 66.9196 20.7519C73.3955 27.2054 77.0336 35.9581 77.0336 45.0847Z" fill="white"/>
<path d="M36.8704 39.3888L63.1673 24.4065L48.1329 50.6124L21.8414 65.5947L36.8651 39.3888H36.8704Z" fill="white"/>
</g>
<defs>
<clipPath id="clip0_450_1044">
<rect width="85" height="90" fill="white"/>
</clipPath>
</defs>
</svg>
