<svg width="123" height="123" viewBox="0 0 123 123" fill="none" xmlns="http://www.w3.org/2000/svg">
<path fill-rule="evenodd" clip-rule="evenodd" d="M46.125 26.9062C46.125 23.848 47.3399 20.915 49.5024 18.7524C51.665 16.5899 54.598 15.375 57.6562 15.375H65.3438C68.402 15.375 71.335 16.5899 73.4976 18.7524C75.6601 20.915 76.875 23.848 76.875 26.9062V34.5938C76.875 37.652 75.6601 40.585 73.4976 42.7476C71.335 44.9101 68.402 46.125 65.3438 46.125V53.8125H84.5625C85.5819 53.8125 86.5596 54.2175 87.2804 54.9383C88.0013 55.6592 88.4062 56.6368 88.4062 57.6562V65.3438C88.4062 66.3632 88.0013 67.3409 87.2804 68.0617C86.5596 68.7825 85.5819 69.1875 84.5625 69.1875C83.5431 69.1875 82.5654 68.7825 81.8446 68.0617C81.1237 67.3409 80.7188 66.3632 80.7188 65.3438V61.5H42.2812V65.3438C42.2812 66.3632 41.8763 67.3409 41.1554 68.0617C40.4346 68.7825 39.4569 69.1875 38.4375 69.1875C37.4181 69.1875 36.4404 68.7825 35.7196 68.0617C34.9987 67.3409 34.5938 66.3632 34.5938 65.3438V57.6562C34.5938 56.6368 34.9987 55.6592 35.7196 54.9383C36.4404 54.2175 37.4181 53.8125 38.4375 53.8125H57.6562V46.125C54.598 46.125 51.665 44.9101 49.5024 42.7476C47.3399 40.585 46.125 37.652 46.125 34.5938V26.9062ZM65.3438 38.4375C66.3632 38.4375 67.3409 38.0325 68.0617 37.3117C68.7825 36.5908 69.1875 35.6132 69.1875 34.5938V26.9062C69.1875 25.8868 68.7825 24.9092 68.0617 24.1883C67.3409 23.4675 66.3632 23.0625 65.3438 23.0625H57.6562C56.6368 23.0625 55.6592 23.4675 54.9383 24.1883C54.2175 24.9092 53.8125 25.8868 53.8125 26.9062V34.5938C53.8125 35.6132 54.2175 36.5908 54.9383 37.3117C55.6592 38.0325 56.6368 38.4375 57.6562 38.4375H65.3438ZM23.0625 88.4062C23.0625 85.348 24.2774 82.415 26.4399 80.2524C28.6025 78.0899 31.5355 76.875 34.5938 76.875H42.2812C45.3395 76.875 48.2725 78.0899 50.4351 80.2524C52.5976 82.415 53.8125 85.348 53.8125 88.4062V96.0938C53.8125 99.152 52.5976 102.085 50.4351 104.248C48.2725 106.41 45.3395 107.625 42.2812 107.625H34.5938C31.5355 107.625 28.6025 106.41 26.4399 104.248C24.2774 102.085 23.0625 99.152 23.0625 96.0938V88.4062ZM34.5938 84.5625C33.5743 84.5625 32.5967 84.9675 31.8758 85.6883C31.155 86.4091 30.75 87.3868 30.75 88.4062V96.0938C30.75 97.1132 31.155 98.0909 31.8758 98.8117C32.5967 99.5325 33.5743 99.9375 34.5938 99.9375H42.2812C43.3007 99.9375 44.2783 99.5325 44.9992 98.8117C45.72 98.0909 46.125 97.1132 46.125 96.0938V88.4062C46.125 87.3868 45.72 86.4091 44.9992 85.6883C44.2783 84.9675 43.3007 84.5625 42.2812 84.5625H34.5938ZM69.1875 88.4062C69.1875 85.348 70.4024 82.415 72.5649 80.2524C74.7275 78.0899 77.6605 76.875 80.7188 76.875H88.4062C91.4645 76.875 94.3975 78.0899 96.5601 80.2524C98.7226 82.415 99.9375 85.348 99.9375 88.4062V96.0938C99.9375 99.152 98.7226 102.085 96.5601 104.248C94.3975 106.41 91.4645 107.625 88.4062 107.625H80.7188C77.6605 107.625 74.7275 106.41 72.5649 104.248C70.4024 102.085 69.1875 99.152 69.1875 96.0938V88.4062ZM80.7188 84.5625C79.6993 84.5625 78.7216 84.9675 78.0008 85.6883C77.28 86.4091 76.875 87.3868 76.875 88.4062V96.0938C76.875 97.1132 77.28 98.0909 78.0008 98.8117C78.7216 99.5325 79.6993 99.9375 80.7188 99.9375H88.4062C89.4257 99.9375 90.4034 99.5325 91.1242 98.8117C91.845 98.0909 92.25 97.1132 92.25 96.0938V88.4062C92.25 87.3868 91.845 86.4091 91.1242 85.6883C90.4034 84.9675 89.4257 84.5625 88.4062 84.5625H80.7188Z" fill="white"/>
</svg>
