<svg width="243" height="51" viewBox="0 0 243 51" fill="none" xmlns="http://www.w3.org/2000/svg">
<path fill-rule="evenodd" clip-rule="evenodd" d="M214.792 1.79796C215.36 0.966216 215.79 0.636985 216.873 0.255769C217.957 -0.125448 218.559 -0.0907919 219.574 0.429048C221.38 1.3301 222.274 3.01092 222.257 5.43684C222.257 7.04835 222.033 7.56819 220.829 8.86779C219.625 10.1674 218.679 10.4446 216.942 10.0114C214.001 9.26633 212.814 4.70907 214.792 1.79796ZM57.7121 17.5052C55.8268 18.1564 54.5341 19.2689 53.5376 21.0325C52.4873 22.9046 52.2179 26.052 52.9182 28.4939C53.5107 30.556 55.3151 32.4281 57.4158 33.1607C59.4896 33.8932 62.8561 33.8661 64.1219 33.1064C65.4685 32.3196 65.8725 31.3971 65.3608 30.149C65.1453 29.6334 64.9029 29.1993 64.8491 29.1993C64.7683 29.1993 64.2835 29.3893 63.7718 29.6063C62.4521 30.149 60.4322 30.1218 59.2741 29.5249C56.7695 28.2768 56.3655 23.61 58.6278 21.6294C59.4357 20.8968 59.7858 20.7883 61.0247 20.7883C61.8327 20.7883 62.9908 20.9782 63.6102 21.2495C64.6875 21.6836 64.7413 21.6565 65.0915 21.1953C65.7109 20.3542 65.5493 18.9433 64.7952 18.2378C63.4217 16.9355 60.2706 16.6099 57.7121 17.5052ZM30.0529 21.1952C30.9955 19.3502 32.3152 18.2106 34.2812 17.478C36.2472 16.7726 39.3983 16.9082 40.7718 17.7765C41.9838 18.509 42.3878 19.5672 41.876 20.7339C41.4721 21.7378 41.3643 21.7378 40.0716 21.1952C39.533 20.9781 38.4287 20.7882 37.6208 20.7882C36.355 20.7882 36.0049 20.8967 35.1969 21.6021C33.6079 23.013 33.2578 26.2689 34.4697 28.2767C35.4393 29.8775 38.2133 30.5016 40.3409 29.6062C41.499 29.1178 41.9299 29.362 42.1992 30.7186C42.5763 32.645 39.8023 34.1102 36.5166 33.7032C33.3117 33.3234 31.3725 32.1295 30.0529 29.7147C29.3257 28.3581 29.2449 28.0325 29.2449 25.5092C29.2449 23.013 29.2988 22.6603 30.0529 21.1952ZM0.37375 18.2105C0.589207 17.9392 1.4241 17.5594 2.33979 17.3694C4.62901 16.8539 8.23791 17.071 9.8269 17.8035C13.3281 19.4858 14.0014 23.6913 11.1735 26.4045L10.2039 27.2999L11.7391 29.3348C13.4897 31.614 13.5705 32.4008 12.1431 33.1334C10.3117 34.083 9.28826 33.5132 7.40302 30.5015C6.19107 28.5751 5.78709 28.1139 5.24845 28.1139C4.60208 28.1139 4.60208 28.141 4.60208 30.6643V33.1876L3.55173 33.3504C1.96274 33.5675 0.750799 33.2148 0.37375 32.4551C-0.137959 31.4512 -0.111026 18.916 0.37375 18.2105ZM7.94166 23.9897C8.53416 23.1486 8.4803 22.3618 7.807 21.4936C7.34915 20.8966 7.0529 20.7881 5.92175 20.7881H4.60208V22.6874V24.5867H6.05641C7.26835 24.5867 7.61847 24.4781 7.94166 23.9897ZM67.8385 21.3307C68.9696 19.1873 70.1816 18.1562 72.6055 17.3423C73.2249 17.1523 74.4638 17.0438 75.568 17.0981C80.3888 17.3151 83.3244 20.5168 83.2975 25.4277C83.2975 29.0092 81.8432 31.5054 78.9884 32.9163C77.6687 33.5675 77.1301 33.676 75.164 33.676C73.198 33.676 72.6593 33.5675 71.3397 32.9163C69.6968 32.1023 68.7811 31.1798 67.8116 29.3619C67.2999 28.4123 67.2191 27.8154 67.2191 25.4006C67.2191 22.9315 67.2999 22.3889 67.8385 21.3307ZM78.6652 25.4006C78.6652 23.4471 78.2073 22.1718 77.1839 21.385C76.0797 20.5168 74.1137 20.571 73.0364 21.4935C71.5551 22.7416 71.1781 25.9704 72.2823 28.1138C72.9556 29.5247 73.7635 30.0131 75.3256 30.0131C77.4532 30.0131 78.6652 28.3309 78.6652 25.4006ZM122.564 17.234C120.221 17.9666 118.363 19.5674 117.42 21.738C116.559 23.6644 116.559 27.1373 117.42 29.0909C118.175 30.8002 119.602 32.2382 121.353 33.0251C122.43 33.5134 123.211 33.6491 125.123 33.6491C128.516 33.6762 129.836 32.8894 129.836 30.8816C129.836 30.4475 129.621 29.9048 129.351 29.6335C128.867 29.2265 128.759 29.2265 127.789 29.6335C126.443 30.2033 124.153 30.0405 123.157 29.2808C122.053 28.4668 121.487 27.1102 121.487 25.3194C121.487 22.3077 122.834 20.7883 125.446 20.7883C126.227 20.7883 127.305 21.0054 127.843 21.2496C128.378 21.504 128.618 21.6181 128.811 21.5645C128.968 21.521 129.095 21.3667 129.324 21.0869L129.324 21.0868C129.594 20.7341 129.836 20.1643 129.836 19.7844C129.836 18.8891 128.57 17.641 127.251 17.2883C126.066 16.9627 123.588 16.9355 122.564 17.234ZM85.9369 18.0477L86.8256 17.6408C88.0107 17.0981 90.3268 17.288 91.0809 17.9663C91.4041 18.2377 92.616 20.4354 93.7741 22.8231L95.8748 27.1642L95.9556 22.2804L96.0364 17.3966L97.2214 17.3152C98.6757 17.2066 99.8338 17.6679 100.049 18.4276C100.13 18.7532 100.211 22.0905 100.211 25.8348C100.211 31.831 100.157 32.6993 99.78 33.0248C99.1067 33.5946 96.1711 33.5132 95.2823 32.9163C94.5551 32.4551 92.9931 29.579 91.1617 25.4006L90.2729 23.3657L90.246 28.3038V33.269L89.3842 33.3233L89.2198 33.3323C88.0458 33.3967 87.2916 33.4381 86.807 33.0967C85.9362 32.4832 85.9364 30.6333 85.9369 25.4589L85.9369 25.075V18.0477ZM132.529 17.5594C131.694 17.9121 131.452 18.2648 131.452 19.3501C131.452 20.9509 131.587 21.0595 133.768 21.0595H135.761V26.5945C135.761 33.4861 135.788 33.5133 139.478 33.3233L140.34 33.2691V27.1643V21.0595H142.198C144.352 21.0595 144.783 20.7339 144.783 19.1602C144.783 17.2881 144.703 17.2609 138.616 17.2881C135.653 17.2881 132.906 17.4237 132.529 17.5594ZM149.979 17.7095L149.98 17.7095C150.03 17.6886 150.085 17.6662 150.143 17.6408C151.328 17.1253 153.752 17.1796 154.883 17.7493C155.637 18.1292 155.933 18.4819 156.31 19.7029C157.011 21.7921 160 32.2652 160 32.6179C160 33.0792 158.761 33.5404 157.549 33.5404C156.176 33.5404 155.287 32.6993 155.018 31.1528L154.829 30.0132H152.459H150.062L149.766 31.1528C149.604 31.8039 149.416 32.5365 149.335 32.7807C149.039 33.8117 145.726 33.7303 145.16 32.6722C144.73 31.8311 144.972 30.6915 147.046 24.5596C147.203 24.0888 147.348 23.6521 147.483 23.2468L147.483 23.2465C148.942 18.8634 149.177 18.1575 149.662 17.8593C149.755 17.8021 149.857 17.7599 149.979 17.7097L149.979 17.7095ZM150.924 26.3775C151.005 26.4589 151.705 26.486 152.513 26.4317L153.967 26.3503L153.267 23.7727C152.863 22.3619 152.486 21.3308 152.405 21.4665C152.082 22.0634 150.789 26.2689 150.924 26.3775ZM16.5868 18.2107L15.9135 18.8619V25.5093V32.1568L16.6138 32.6994C17.2871 33.215 17.6911 33.2692 21.9733 33.2692C25.7707 33.2692 26.6864 33.1878 26.9557 32.8622C27.3058 32.4552 27.3866 30.5017 27.0903 30.0133C26.9826 29.8505 25.5283 29.742 23.5622 29.742H20.2227V28.3854V27.0288H22.8081C25.9592 27.0288 26.417 26.8117 26.417 25.4008C26.417 24.6202 26.417 24.1605 26.1908 23.8897C25.8666 23.5015 25.0778 23.5015 23.1583 23.5015H20.2227V22.2806V21.0596H23.266C26.7133 21.0596 27.225 20.8154 27.225 19.2417L27.2252 19.114C27.2262 18.598 27.2268 18.2502 27.0641 18.0158C26.7276 17.531 25.6922 17.5313 22.5151 17.5323L22.0541 17.5324C17.2871 17.5324 17.2332 17.5324 16.5868 18.2107ZM103.443 25.4008C103.443 19.3231 103.55 18.6177 104.493 17.8851C104.816 17.6409 106.271 17.5595 109.745 17.6138L114.593 17.6681L114.808 18.5634C114.97 19.1604 114.943 19.6759 114.7 20.1914C114.351 20.9233 114.323 20.924 111.181 21.0051L111.172 21.0054L108.021 21.0868V22.2806V23.5015H110.984H113.919L114.108 24.5054C114.242 25.1838 114.162 25.7264 113.919 26.1877C113.542 26.866 113.408 26.8931 110.768 26.9745L108.021 27.0559V28.3854V29.742H111.361L111.507 29.742C113.599 29.7418 114.437 29.7417 114.778 30.1534C115.006 30.4285 115.013 30.8874 115.023 31.6531L115.024 31.6955C115.024 33.1336 114.62 33.2692 109.637 33.2692C107.132 33.2692 104.897 33.1878 104.655 33.1064C103.604 32.6994 103.443 31.6413 103.443 25.4008ZM43.869 25.1293C43.2765 25.482 43.0341 26.7572 43.3573 27.6797L43.6535 28.4123L46.9392 28.3309C49.4323 28.2696 50.0491 28.2545 50.351 27.9385C50.4502 27.8346 50.5154 27.6982 50.602 27.5169C50.8444 27.0014 50.8713 26.4859 50.7097 25.889L50.4943 24.9936L47.3971 24.9393C45.7004 24.8851 44.1114 24.9936 43.869 25.1293ZM237.943 8.43461C237.909 8.50392 237.806 9.24902 237.737 10.0634L237.616 11.571L236.103 11.6923L234.572 11.8136V12.6453V13.4944H236.206H237.84V15.2272V16.96H238.786H239.732V15.2272V13.4944H241.366H243V12.5413V11.5883H241.366H239.732V9.94214V8.29598H238.889C238.408 8.29598 237.995 8.36529 237.943 8.43461ZM199.897 12.2294C200.31 10.8432 201.565 9.56091 202.89 9.16236C204.885 8.55588 207.19 9.3703 213.674 13.0092C218.868 15.9203 221.38 16.8733 224.527 17.0813C226.368 17.2026 228.81 16.9253 231.115 16.3362C232.009 16.1109 232.783 15.9549 232.818 16.0069C232.938 16.1109 231.218 17.7571 229.79 18.8834C227.589 20.6682 225.748 21.5346 222.119 22.5223C219.144 23.3367 218.232 24.1338 218.232 25.9705C218.232 27.2181 218.731 28.2925 220.141 30.008C220.743 30.7531 221.724 31.966 222.326 32.6938C223.564 34.2013 224.768 36.5579 225.215 38.3601C225.645 40.0582 225.662 44.9447 225.232 46.6775C224.682 48.9128 224.2 50.4203 224.08 50.2817C224.011 50.2124 223.77 49.3287 223.564 48.3237C222.635 43.8704 221.38 41.0632 219.367 39.0358C217.269 36.9218 215.6 36.298 212.04 36.3153C209.494 36.3327 209.254 36.3847 204.73 37.7536C200.688 38.9839 199.57 39.1918 196.99 39.1745C193.774 39.1745 191.658 38.6546 188.889 37.1644C188.098 36.7312 186.962 36.0208 186.378 35.5529C185.019 34.5306 182.869 32.4339 183.006 32.2779C183.075 32.2259 184.073 32.4859 185.242 32.8671C188.459 33.9241 189.766 34.1493 192.518 34.1667C196.096 34.1667 197.196 33.8028 199.364 31.9487C201.978 29.6961 203.698 27.4088 206.588 22.245C207.499 20.6162 208.583 18.7967 209.013 18.1903C209.443 17.5664 209.804 17.012 209.804 16.9426C209.804 16.7694 206.674 14.742 205.9 14.4127C204.283 13.7196 203.182 13.8063 202.374 14.6553C201.737 15.3311 201.565 15.903 201.428 17.6704C201.376 18.5195 201.256 19.1606 201.17 19.1086C201.101 19.0567 200.826 18.6235 200.602 18.1556C199.725 16.4228 199.415 13.8409 199.897 12.2294Z" fill="white"/>
</svg>
