<svg width="103" height="77" viewBox="0 0 103 77" fill="none" xmlns="http://www.w3.org/2000/svg">
<path fill-rule="evenodd" clip-rule="evenodd" d="M45.0625 77C45.0625 77 38.625 77 38.625 70.5833C38.625 64.1667 45.0625 44.9167 70.8125 44.9167C96.5625 44.9167 103 64.1667 103 70.5833C103 77 96.5625 77 96.5625 77H45.0625ZM70.8125 38.5C75.9345 38.5 80.8467 36.4719 84.4685 32.8618C88.0903 29.2517 90.125 24.3554 90.125 19.25C90.125 14.1446 88.0903 9.24827 84.4685 5.6382C80.8467 2.02812 75.9345 0 70.8125 0C65.6905 0 60.7783 2.02812 57.1565 5.6382C53.5347 9.24827 51.5 14.1446 51.5 19.25C51.5 24.3554 53.5347 29.2517 57.1565 32.8618C60.7783 36.4719 65.6905 38.5 70.8125 38.5ZM33.578 77C32.6237 74.9968 32.1477 72.8005 32.1875 70.5833C32.1875 61.8887 36.565 52.9375 44.6505 46.7133C40.6148 45.4739 36.4102 44.8677 32.1875 44.9167C6.4375 44.9167 0 64.1667 0 70.5833C0 77 6.4375 77 6.4375 77H33.578ZM28.9688 38.5C33.2371 38.5 37.3306 36.8099 40.3488 33.8015C43.3669 30.7931 45.0625 26.7128 45.0625 22.4583C45.0625 18.2038 43.3669 14.1236 40.3488 11.1152C37.3306 8.10677 33.2371 6.41667 28.9688 6.41667C24.7004 6.41667 20.6069 8.10677 17.5888 11.1152C14.5706 14.1236 12.875 18.2038 12.875 22.4583C12.875 26.7128 14.5706 30.7931 17.5888 33.8015C20.6069 36.8099 24.7004 38.5 28.9688 38.5Z" fill="white"/>
</svg>
